ply
format ascii 1.0
comment Created in Blender version 4.5.3 LTS
element vertex 65
property float x
property float y
property float z
property float nx
property float ny
property float nz
property float s
property float t
element face 61
property list uchar uint vertex_indices
end_header
0 -0.5 -0.49999997 0 -0.50328267 -0.8641218 0.25 0.49
0 0.5 -2.1855694e-08 -7.451353e-08 1 -6.159463e-08 0.25 0.25
0.09754516 -0.5 -0.4903926 0.16858645 -0.5032431 -0.8475406 0.29682168 0.48538846
0.19134173 -0.5 -0.46193972 0.33068508 -0.5032827 -0.7983445 0.34184402 0.47173107
0.27778512 -0.5 -0.41573477 0.4800925 -0.5032462 -0.7185085 0.38333684 0.4495527
0.35355338 -0.5 -0.35355335 0.61102647 -0.50328255 -0.61102647 0.41970563 0.41970563
0.4157348 -0.5 -0.2777851 0.7184975 -0.5032687 -0.48008525 0.4495527 0.38333684
0.46193975 -0.5 -0.19134171 0.7983445 -0.50328267 -0.33068505 0.47173107 0.34184402
0.49039263 -0.5 -0.09754514 0.84754467 -0.50323594 -0.16858715 0.48538846 0.29682168
0.5 -0.5 2.1855694e-08 0.8641219 -0.50328255 2.199918e-08 0.49 0.25
0.49039263 -0.5 0.097545184 0.8475407 -0.5032431 0.1685864 0.48538846 0.20317832
0.46193975 -0.5 0.19134174 0.7983445 -0.5032827 0.3306851 0.47173107 0.15815598
0.4157348 -0.5 0.27778515 0.7185088 -0.50324625 0.48009205 0.4495527 0.11666314
0.35355338 -0.49999997 0.3535534 0.61102647 -0.50328255 0.61102647 0.41970563 0.080294386
0.27778512 -0.49999997 0.41573483 0.4800851 -0.5032683 0.71849805 0.38333684 0.0504473
0.19134173 -0.49999997 0.46193978 0.33068508 -0.5032826 0.7983445 0.34184402 0.028268918
0.09754516 -0.49999997 0.49039266 0.16858716 -0.5032359 0.8475448 0.29682168 0.014611542
0 -0.49999997 0.5 0 -0.5032826 0.8641219 0.25 0.010000005
-0.09754516 -0.49999997 0.49039266 -0.16858645 -0.50324297 0.8475406 0.20317832 0.014611542
-0.19134173 -0.49999997 0.46193978 -0.33068508 -0.5032826 0.7983445 0.15815598 0.028268918
-0.27778512 -0.49999997 0.41573483 -0.48009256 -0.5032461 0.71850854 0.11666314 0.0504473
-0.35355338 -0.49999997 0.3535534 -0.61102647 -0.50328255 0.61102647 0.080294386 0.080294386
-0.4157348 -0.5 0.27778515 -0.7184975 -0.5032687 0.4800853 0.0504473 0.11666314
-0.46193975 -0.5 0.19134174 -0.7983445 -0.50328267 0.3306851 0.028268918 0.15815598
-0.49039263 -0.5 0.097545184 -0.84754467 -0.50323594 0.16858718 0.014611542 0.20317832
-0.5 -0.5 2.1855694e-08 -0.8641219 -0.50328255 2.199918e-08 0.010000005 0.25
-0.49039263 -0.5 -0.09754514 -0.8475407 -0.5032431 -0.16858637 0.014611542 0.29682168
-0.46193975 -0.5 -0.19134171 -0.7983445 -0.5032827 -0.33068505 0.028268918 0.34184402
-0.4157348 -0.5 -0.2777851 -0.71850884 -0.5032463 -0.48009205 0.0504473 0.38333684
-0.35355338 -0.5 -0.35355335 -0.61102647 -0.50328255 -0.61102647 0.080294386 0.41970563
-0.27778512 -0.5 -0.41573477 -0.48008505 -0.50326836 -0.718498 0.11666314 0.4495527
-0.19134173 -0.5 -0.46193972 -0.33068508 -0.5032827 -0.7983445 0.15815598 0.47173107
-0.09754516 -0.5 -0.4903926 -0.16858715 -0.50323594 -0.84754467 0.20317832 0.48538846
-0.09754516 -0.5 -0.4903926 -0.16858715 -0.50323594 -0.84754467 0.70317835 0.48538846
0 -0.5 -0.49999997 0 -0.50328267 -0.8641218 0.75 0.49
0.09754516 -0.5 -0.4903926 0.16858645 -0.5032431 -0.8475406 0.79682165 0.48538846
0.19134173 -0.5 -0.46193972 0.33068508 -0.5032827 -0.7983445 0.841844 0.47173107
0.27778512 -0.5 -0.41573477 0.4800925 -0.5032462 -0.7185085 0.88333684 0.4495527
0.35355338 -0.5 -0.35355335 0.61102647 -0.50328255 -0.61102647 0.9197056 0.41970563
0.4157348 -0.5 -0.2777851 0.7184975 -0.5032687 -0.48008525 0.9495527 0.38333684
0.46193975 -0.5 -0.19134171 0.7983445 -0.50328267 -0.33068505 0.97173107 0.34184402
0.49039263 -0.5 -0.09754514 0.84754467 -0.50323594 -0.16858715 0.98538846 0.29682168
0.5 -0.5 2.1855694e-08 0.8641219 -0.50328255 2.199918e-08 0.99 0.25
0.49039263 -0.5 0.097545184 0.8475407 -0.5032431 0.1685864 0.98538846 0.20317832
0.46193975 -0.5 0.19134174 0.7983445 -0.5032827 0.3306851 0.97173107 0.15815598
0.4157348 -0.5 0.27778515 0.7185088 -0.50324625 0.48009205 0.9495527 0.11666314
0.35355338 -0.49999997 0.3535534 0.61102647 -0.50328255 0.61102647 0.9197056 0.080294386
0.27778512 -0.49999997 0.41573483 0.4800851 -0.5032683 0.71849805 0.88333684 0.0504473
0.19134173 -0.49999997 0.46193978 0.33068508 -0.5032826 0.7983445 0.841844 0.028268918
0.09754516 -0.49999997 0.49039266 0.16858716 -0.5032359 0.8475448 0.79682165 0.014611542
0 -0.49999997 0.5 0 -0.5032826 0.8641219 0.75 0.010000005
-0.09754516 -0.49999997 0.49039266 -0.16858645 -0.50324297 0.8475406 0.70317835 0.014611542
-0.19134173 -0.49999997 0.46193978 -0.33068508 -0.5032826 0.7983445 0.658156 0.028268918
-0.27778512 -0.49999997 0.41573483 -0.48009256 -0.5032461 0.71850854 0.61666316 0.0504473
-0.35355338 -0.49999997 0.3535534 -0.61102647 -0.50328255 0.61102647 0.5802944 0.080294386
-0.4157348 -0.5 0.27778515 -0.7184975 -0.5032687 0.4800853 0.5504473 0.11666314
-0.46193975 -0.5 0.19134174 -0.7983445 -0.50328267 0.3306851 0.52826893 0.15815598
-0.49039263 -0.5 0.097545184 -0.84754467 -0.50323594 0.16858718 0.51461154 0.20317832
-0.5 -0.5 2.1855694e-08 -0.8641219 -0.50328255 2.199918e-08 0.51 0.25
-0.49039263 -0.5 -0.09754514 -0.8475407 -0.5032431 -0.16858637 0.51461154 0.29682168
-0.46193975 -0.5 -0.19134171 -0.7983445 -0.5032827 -0.33068505 0.52826893 0.34184402
-0.4157348 -0.5 -0.2777851 -0.71850884 -0.5032463 -0.48009205 0.5504473 0.38333684
-0.35355338 -0.5 -0.35355335 -0.61102647 -0.50328255 -0.61102647 0.5802944 0.41970563
-0.27778512 -0.5 -0.41573477 -0.48008505 -0.50326836 -0.718498 0.61666316 0.4495527
-0.19134173 -0.5 -0.46193972 -0.33068508 -0.5032827 -0.7983445 0.658156 0.47173107
3 0 1 2
3 2 1 3
3 3 1 4
3 4 1 5
3 5 1 6
3 6 1 7
3 7 1 8
3 8 1 9
3 9 1 10
3 10 1 11
3 11 1 12
3 12 1 13
3 13 1 14
3 14 1 15
3 15 1 16
3 16 1 17
3 17 1 18
3 18 1 19
3 19 1 20
3 20 1 21
3 21 1 22
3 22 1 23
3 23 1 24
3 24 1 25
3 25 1 26
3 26 1 27
3 27 1 28
3 28 1 29
3 29 1 30
3 30 1 31
3 31 1 32
3 32 1 0
3 33 34 35
3 35 36 37
3 37 38 39
3 39 40 41
3 41 42 43
3 43 44 45
3 45 46 47
3 47 48 49
3 49 50 51
3 51 52 53
3 53 54 55
3 55 56 57
3 57 58 59
3 59 60 61
3 61 62 63
3 63 64 33
3 33 35 41
3 35 37 41
3 37 39 41
3 41 43 49
3 43 45 49
3 45 47 49
3 49 51 57
3 51 53 57
3 53 55 57
3 57 59 33
3 59 61 33
3 61 63 33
4 49 57 33 41
