ply
format ascii 1.0
comment Created in Blender version 4.5.3 LTS
element vertex 14
property float x
property float y
property float z
property float nx
property float ny
property float nz
property float s
property float t
element face 6
property list uchar uint vertex_indices
end_header
-0.5 0.5 0.5 -0.5773503 0.5773503 0.5773503 0.625 0.25
-0.5 0.5 -0.5 -0.5773503 0.5773503 -0.5773503 0.375 0.25
-0.5 -0.5 -0.5 -0.5773503 -0.5773503 -0.5773503 0.375 0
-0.5 -0.5 0.5 -0.5773503 -0.5773503 0.5773503 0.625 0
0.5 0.5 0.5 0.5773503 0.5773503 0.5773503 0.625 0.5
0.5 0.5 -0.5 0.5773503 0.5773503 -0.5773503 0.375 0.5
-0.5 -0.5 0.5 -0.5773503 -0.5773503 0.5773503 0.625 1
-0.5 -0.5 -0.5 -0.5773503 -0.5773503 -0.5773503 0.375 1
0.5 -0.5 -0.5 0.5773503 -0.5773503 -0.5773503 0.375 0.75
0.5 -0.5 0.5 0.5773503 -0.5773503 0.5773503 0.625 0.75
-0.5 -0.5 -0.5 -0.5773503 -0.5773503 -0.5773503 0.125 0.75
-0.5 0.5 -0.5 -0.5773503 0.5773503 -0.5773503 0.125 0.5
-0.5 -0.5 0.5 -0.5773503 -0.5773503 0.5773503 0.875 0.75
-0.5 0.5 0.5 -0.5773503 0.5773503 0.5773503 0.875 0.5
4 0 1 2 3
4 4 5 1 0
4 6 7 8 9
4 8 10 11 5
4 9 8 5 4
4 12 9 4 13
