ply
format ascii 1.0
comment Created in Blender version 4.5.3 LTS
element vertex 130
property float x
property float y
property float z
property float s
property float t
element face 34
property list uchar uint vertex_indices
end_header
0 0.5 -0.5 1 0.5
0 0.5 0.5 1 1
0.09754516 0.49039263 0.5 0.96875 1
0.09754516 0.49039263 -0.5 0.96875 0.5
0.19134173 0.46193975 0.5 0.9375 1
0.19134173 0.46193975 -0.5 0.9375 0.5
0.27778512 0.4157348 0.5 0.90625 1
0.27778512 0.4157348 -0.5 0.90625 0.5
0.35355338 0.35355338 0.5 0.875 1
0.35355338 0.35355338 -0.5 0.875 0.5
0.4157348 0.27778512 0.5 0.84375 1
0.4157348 0.27778512 -0.5 0.84375 0.5
0.46193975 0.19134173 0.5 0.8125 1
0.46193975 0.19134173 -0.5 0.8125 0.5
0.49039263 0.09754516 0.5 0.78125 1
0.49039263 0.09754516 -0.5 0.78125 0.5
0.5 0 0.5 0.75 1
0.5 0 -0.5 0.75 0.5
0.49039263 -0.09754516 0.5 0.71875 1
0.49039263 -0.09754516 -0.5 0.71875 0.5
0.46193975 -0.19134173 0.5 0.6875 1
0.46193975 -0.19134173 -0.5 0.6875 0.5
0.4157348 -0.27778512 0.5 0.65625 1
0.4157348 -0.27778512 -0.5 0.65625 0.5
0.35355338 -0.35355338 0.5 0.625 1
0.35355338 -0.35355338 -0.5 0.625 0.5
0.27778512 -0.4157348 0.5 0.59375 1
0.27778512 -0.4157348 -0.5 0.59375 0.5
0.19134173 -0.46193975 0.5 0.5625 1
0.19134173 -0.46193975 -0.5 0.5625 0.5
0.09754516 -0.49039263 0.5 0.53125 1
0.09754516 -0.49039263 -0.5 0.53125 0.5
0 -0.5 0.5 0.5 1
0 -0.5 -0.5 0.5 0.5
-0.09754516 -0.49039263 0.5 0.46875 1
-0.09754516 -0.49039263 -0.5 0.46875 0.5
-0.19134173 -0.46193975 0.5 0.4375 1
-0.19134173 -0.46193975 -0.5 0.4375 0.5
-0.27778512 -0.4157348 0.5 0.40625 1
-0.27778512 -0.4157348 -0.5 0.40625 0.5
-0.35355338 -0.35355338 0.5 0.375 1
-0.35355338 -0.35355338 -0.5 0.375 0.5
-0.4157348 -0.27778512 0.5 0.34375 1
-0.4157348 -0.27778512 -0.5 0.34375 0.5
-0.46193975 -0.19134173 0.5 0.3125 1
-0.46193975 -0.19134173 -0.5 0.3125 0.5
-0.49039263 -0.09754516 0.5 0.28125 1
-0.49039263 -0.09754516 -0.5 0.28125 0.5
-0.5 0 0.5 0.25 1
-0.5 0 -0.5 0.25 0.5
-0.49039263 0.09754516 0.5 0.21875 1
-0.49039263 0.09754516 -0.5 0.21875 0.5
-0.46193975 0.19134173 0.5 0.1875 1
-0.46193975 0.19134173 -0.5 0.1875 0.5
-0.4157348 0.27778512 0.5 0.15625 1
-0.4157348 0.27778512 -0.5 0.15625 0.5
-0.35355338 0.35355338 0.5 0.125 1
-0.35355338 0.35355338 -0.5 0.125 0.5
-0.27778512 0.4157348 0.5 0.09375 1
-0.27778512 0.4157348 -0.5 0.09375 0.5
-0.19134173 0.46193975 0.5 0.0625 1
-0.19134173 0.46193975 -0.5 0.0625 0.5
0.09754516 0.49039263 0.5 0.29682168 0.48538846
0 0.5 0.5 0.25 0.49
-0.09754516 0.49039263 0.5 0.20317832 0.48538846
-0.19134173 0.46193975 0.5 0.15815598 0.47173107
-0.27778512 0.4157348 0.5 0.11666314 0.4495527
-0.35355338 0.35355338 0.5 0.080294386 0.41970563
-0.4157348 0.27778512 0.5 0.0504473 0.38333684
-0.46193975 0.19134173 0.5 0.028268918 0.34184402
-0.49039263 0.09754516 0.5 0.014611542 0.29682168
-0.5 0 0.5 0.010000005 0.25
-0.49039263 -0.09754516 0.5 0.014611542 0.20317832
-0.46193975 -0.19134173 0.5 0.028268918 0.15815598
-0.4157348 -0.27778512 0.5 0.0504473 0.11666314
-0.35355338 -0.35355338 0.5 0.080294386 0.080294386
-0.27778512 -0.4157348 0.5 0.11666314 0.0504473
-0.19134173 -0.46193975 0.5 0.15815598 0.028268918
-0.09754516 -0.49039263 0.5 0.20317832 0.014611542
0 -0.5 0.5 0.25 0.010000005
0.09754516 -0.49039263 0.5 0.29682168 0.014611542
0.19134173 -0.46193975 0.5 0.34184402 0.028268918
0.27778512 -0.4157348 0.5 0.38333684 0.0504473
0.35355338 -0.35355338 0.5 0.41970563 0.080294386
0.4157348 -0.27778512 0.5 0.4495527 0.11666314
0.46193975 -0.19134173 0.5 0.47173107 0.15815598
0.49039263 -0.09754516 0.5 0.48538846 0.20317832
0.5 0 0.5 0.49 0.25
0.49039263 0.09754516 0.5 0.48538846 0.29682168
0.46193975 0.19134173 0.5 0.47173107 0.34184402
0.4157348 0.27778512 0.5 0.4495527 0.38333684
0.35355338 0.35355338 0.5 0.41970563 0.41970563
0.27778512 0.4157348 0.5 0.38333684 0.4495527
0.19134173 0.46193975 0.5 0.34184402 0.47173107
-0.09754516 0.49039263 0.5 0.03125 1
-0.09754516 0.49039263 -0.5 0.03125 0.5
0 0.5 0.5 0 1
0 0.5 -0.5 0 0.5
0 0.5 -0.5 0.75 0.49
0.09754516 0.49039263 -0.5 0.79682165 0.48538846
0.19134173 0.46193975 -0.5 0.841844 0.47173107
0.27778512 0.4157348 -0.5 0.88333684 0.4495527
0.35355338 0.35355338 -0.5 0.9197056 0.41970563
0.4157348 0.27778512 -0.5 0.9495527 0.38333684
0.46193975 0.19134173 -0.5 0.97173107 0.34184402
0.49039263 0.09754516 -0.5 0.98538846 0.29682168
0.5 0 -0.5 0.99 0.25
0.49039263 -0.09754516 -0.5 0.98538846 0.20317832
0.46193975 -0.19134173 -0.5 0.97173107 0.15815598
0.4157348 -0.27778512 -0.5 0.9495527 0.11666314
0.35355338 -0.35355338 -0.5 0.9197056 0.080294386
0.27778512 -0.4157348 -0.5 0.88333684 0.0504473
0.19134173 -0.46193975 -0.5 0.841844 0.028268918
0.09754516 -0.49039263 -0.5 0.79682165 0.014611542
0 -0.5 -0.5 0.75 0.010000005
-0.09754516 -0.49039263 -0.5 0.70317835 0.014611542
-0.19134173 -0.46193975 -0.5 0.658156 0.028268918
-0.27778512 -0.4157348 -0.5 0.61666316 0.0504473
-0.35355338 -0.35355338 -0.5 0.5802944 0.080294386
-0.4157348 -0.27778512 -0.5 0.5504473 0.11666314
-0.46193975 -0.19134173 -0.5 0.52826893 0.15815598
-0.49039263 -0.09754516 -0.5 0.51461154 0.20317832
-0.5 0 -0.5 0.51 0.25
-0.49039263 0.09754516 -0.5 0.51461154 0.29682168
-0.46193975 0.19134173 -0.5 0.52826893 0.34184402
-0.4157348 0.27778512 -0.5 0.5504473 0.38333684
-0.35355338 0.35355338 -0.5 0.5802944 0.41970563
-0.27778512 0.4157348 -0.5 0.61666316 0.4495527
-0.19134173 0.46193975 -0.5 0.658156 0.47173107
-0.09754516 0.49039263 -0.5 0.70317835 0.48538846
4 0 1 2 3
4 3 2 4 5
4 5 4 6 7
4 7 6 8 9
4 9 8 10 11
4 11 10 12 13
4 13 12 14 15
4 15 14 16 17
4 17 16 18 19
4 19 18 20 21
4 21 20 22 23
4 23 22 24 25
4 25 24 26 27
4 27 26 28 29
4 29 28 30 31
4 31 30 32 33
4 33 32 34 35
4 35 34 36 37
4 37 36 38 39
4 39 38 40 41
4 41 40 42 43
4 43 42 44 45
4 45 44 46 47
4 47 46 48 49
4 49 48 50 51
4 51 50 52 53
4 53 52 54 55
4 55 54 56 57
4 57 56 58 59
4 59 58 60 61
32 62 63 64 65 66 67 68 69 70 71 72 73 74 75 76 77 78 79 80 81 82 83 84 85 86 87 88 89 90 91 92 93
4 61 60 94 95
4 95 94 96 97
32 98 99 100 101 102 103 104 105 106 107 108 109 110 111 112 113 114 115 116 117 118 119 120 121 122 123 124 125 126 127 128 129
