ply
format ascii 1.0
comment Created in Blender version 4.5.3 LTS
element vertex 130
property float x
property float y
property float z
property float nx
property float ny
property float nz
property float s
property float t
element face 90
property list uchar uint vertex_indices
end_header
0 0.49999997 0.5 0 0.6857015 0.7278829 1 0.5
0 -0.5 0.49999997 0 -0.68569887 0.72788537 1 1
0.09754516 -0.5 0.4903926 0.14200293 -0.68570167 0.71389663 0.96875 1
0.09754516 0.49999997 0.49039266 0.1420068 0.6856809 0.7139158 0.96875 0.5
0.19134173 -0.5 0.46193972 0.2785578 -0.6856763 0.67249805 0.9375 1
0.19134173 0.49999997 0.46193978 0.27854863 0.68570155 0.67247605 0.9375 0.5
0.27778512 -0.5 0.41573477 0.40439007 -0.68570155 0.6052124 0.90625 1
0.27778512 0.49999997 0.41573483 0.4044002 0.68568254 0.6052272 0.90625 0.5
0.35355338 -0.5 0.35355335 0.51470447 -0.68568116 0.5147044 0.875 1
0.35355338 0.49999997 0.3535534 0.5146909 0.6857015 0.51469094 0.875 0.5
0.4157348 -0.5 0.2777851 0.6052125 -0.68570155 0.4043901 0.84375 1
0.4157348 0.5 0.27778515 0.6052179 0.68569446 0.40439412 0.84375 0.5
0.46193975 -0.5 0.19134171 0.67249334 -0.68568176 0.27855575 0.8125 1
0.46193975 0.5 0.19134174 0.67247605 0.68570155 0.2785487 0.8125 0.5
0.49039263 -0.5 0.09754514 0.7138967 -0.6857016 0.1420029 0.78125 1
0.49039263 0.5 0.097545184 0.7139192 0.6856773 0.14200744 0.78125 0.5
0.5 -0.5 -2.1855694e-08 0.72788626 -0.6856979 -2.997281e-08 0.75 1
0.5 0.5 2.1855694e-08 0.72788286 0.6857015 2.9972963e-08 0.75 0.5
0.49039263 -0.5 -0.097545184 0.7139026 -0.68569523 -0.1420041 0.71875 1
0.49039263 0.5 -0.09754514 0.7139157 0.6856811 -0.14200671 0.71875 0.5
0.46193975 -0.5 -0.19134174 0.6724948 -0.68568003 -0.27855647 0.6875 1
0.46193975 0.5 -0.19134171 0.67247605 0.6857016 -0.27854863 0.6875 0.5
0.4157348 -0.5 -0.27778515 0.60521245 -0.6857015 -0.4043901 0.65625 1
0.4157348 0.5 -0.2777851 0.6052274 0.6856826 -0.40439987 0.65625 0.5
0.35355338 -0.49999997 -0.3535534 0.51470447 -0.68568116 -0.5147045 0.625 1
0.35355338 0.5 -0.35355335 0.51469094 0.68570155 -0.5146909 0.625 0.5
0.27778512 -0.49999997 -0.41573483 0.40439007 -0.68570155 -0.6052125 0.59375 1
0.27778512 0.5 -0.41573477 0.40439397 0.68569416 -0.60521823 0.59375 0.5
0.19134173 -0.49999997 -0.46193978 0.27855578 -0.68568176 -0.67249334 0.5625 1
0.19134173 0.5 -0.46193972 0.27854866 0.6857016 -0.672476 0.5625 0.5
0.09754516 -0.49999997 -0.49039266 0.14200293 -0.68570155 -0.71389675 0.53125 1
0.09754516 0.5 -0.4903926 0.1420074 0.6856773 -0.71391916 0.53125 0.5
0 -0.49999997 -0.5 0 -0.68569875 -0.7278855 0.5 1
0 0.5 -0.49999997 0 0.6857016 -0.7278828 0.5 0.5
-0.09754516 -0.49999997 -0.49039266 -0.14200409 -0.68569523 -0.71390265 0.46875 1
-0.09754516 0.5 -0.4903926 -0.1420068 0.68568105 -0.7139157 0.46875 0.5
-0.19134173 -0.49999997 -0.46193978 -0.2785564 -0.68568 -0.6724948 0.4375 1
-0.19134173 0.5 -0.46193972 -0.27854866 0.6857016 -0.672476 0.4375 0.5
-0.27778512 -0.49999997 -0.41573483 -0.40439007 -0.68570155 -0.6052125 0.40625 1
-0.27778512 0.5 -0.41573477 -0.40440026 0.6856826 -0.6052271 0.40625 0.5
-0.35355338 -0.49999997 -0.3535534 -0.51470447 -0.68568116 -0.5147045 0.375 1
-0.35355338 0.5 -0.35355335 -0.51469094 0.68570155 -0.5146909 0.375 0.5
-0.4157348 -0.5 -0.27778515 -0.60521245 -0.6857015 -0.4043901 0.34375 1
-0.4157348 0.5 -0.2777851 -0.6052179 0.68569446 -0.40439406 0.34375 0.5
-0.46193975 -0.5 -0.19134174 -0.67249 -0.6856856 -0.27855447 0.3125 1
-0.46193975 0.5 -0.19134171 -0.67247605 0.68570155 -0.27854863 0.3125 0.5
-0.49039263 -0.5 -0.097545184 -0.7139026 -0.6856953 -0.14200412 0.28125 1
-0.49039263 0.5 -0.09754514 -0.7139192 0.6856773 -0.14200738 0.28125 0.5
-0.5 -0.5 -2.1855694e-08 -0.7278855 -0.6856988 -2.997285e-08 0.25 1
-0.5 0.5 2.1855694e-08 -0.72788286 0.6857015 2.9972963e-08 0.25 0.5
-0.49039263 -0.5 0.09754514 -0.7138967 -0.6857016 0.1420029 0.21875 1
-0.49039263 0.5 0.097545184 -0.7139157 0.6856811 0.14200677 0.21875 0.5
-0.46193975 -0.5 0.19134171 -0.6724981 -0.6856763 0.27855778 0.1875 1
-0.46193975 0.5 0.19134174 -0.67247605 0.6857016 0.2785487 0.1875 0.5
-0.4157348 -0.5 0.2777851 -0.6052125 -0.68570155 0.4043901 0.15625 1
-0.4157348 0.5 0.27778515 -0.60522735 0.68568254 0.40439987 0.15625 0.5
-0.35355338 -0.5 0.35355335 -0.51470447 -0.68568116 0.5147044 0.125 1
-0.35355338 0.49999997 0.3535534 -0.5146909 0.6857015 0.51469094 0.125 0.5
-0.27778512 -0.5 0.41573477 -0.40439007 -0.68570155 0.6052124 0.09375 1
-0.27778512 0.49999997 0.41573483 -0.4043939 0.6856941 0.6052183 0.09375 0.5
-0.19134173 -0.5 0.46193972 -0.27855444 -0.6856856 0.67248994 0.0625 1
-0.19134173 0.49999997 0.46193978 -0.27854863 0.68570155 0.67247605 0.0625 0.5
-0.09754516 -0.5 0.4903926 -0.14200409 -0.68569535 0.71390253 0.03125 1
-0.09754516 0.49999997 0.49039266 -0.1420074 0.6856772 0.7139193 0.03125 0.5
0 -0.5 0.49999997 0 -0.68569887 0.72788537 0 1
0 0.49999997 0.5 0 0.6857015 0.7278829 0 0.5
0 -0.5 0.49999997 0 -0.68569887 0.72788537 0.25 0.49
-0.09754516 -0.5 0.4903926 -0.14200409 -0.68569535 0.71390253 0.20317832 0.48538846
0.19134173 -0.5 0.46193972 0.2785578 -0.6856763 0.67249805 0.34184402 0.47173107
-0.09754516 0.49999997 0.49039266 -0.1420074 0.6856772 0.7139193 0.70317835 0.48538846
0 0.49999997 0.5 0 0.6857015 0.7278829 0.75 0.49
0.09754516 0.49999997 0.49039266 0.1420068 0.6856809 0.7139158 0.79682165 0.48538846
0.19134173 0.49999997 0.46193978 0.27854863 0.68570155 0.67247605 0.841844 0.47173107
0.27778512 0.49999997 0.41573483 0.4044002 0.68568254 0.6052272 0.88333684 0.4495527
0.35355338 0.49999997 0.3535534 0.5146909 0.6857015 0.51469094 0.9197056 0.41970563
0.4157348 0.5 0.27778515 0.6052179 0.68569446 0.40439412 0.9495527 0.38333684
0.46193975 0.5 0.19134174 0.67247605 0.68570155 0.2785487 0.97173107 0.34184402
0.49039263 0.5 0.097545184 0.7139192 0.6856773 0.14200744 0.98538846 0.29682168
0.5 0.5 2.1855694e-08 0.72788286 0.6857015 2.9972963e-08 0.99 0.25
0.49039263 0.5 -0.09754514 0.7139157 0.6856811 -0.14200671 0.98538846 0.20317832
0.46193975 0.5 -0.19134171 0.67247605 0.6857016 -0.27854863 0.97173107 0.15815598
0.4157348 0.5 -0.2777851 0.6052274 0.6856826 -0.40439987 0.9495527 0.11666314
0.35355338 0.5 -0.35355335 0.51469094 0.68570155 -0.5146909 0.9197056 0.080294386
0.27778512 0.5 -0.41573477 0.40439397 0.68569416 -0.60521823 0.88333684 0.0504473
0.19134173 0.5 -0.46193972 0.27854866 0.6857016 -0.672476 0.841844 0.028268918
0.09754516 0.5 -0.4903926 0.1420074 0.6856773 -0.71391916 0.79682165 0.014611542
0 0.5 -0.49999997 0 0.6857016 -0.7278828 0.75 0.010000005
-0.09754516 0.5 -0.4903926 -0.1420068 0.68568105 -0.7139157 0.70317835 0.014611542
-0.19134173 0.5 -0.46193972 -0.27854866 0.6857016 -0.672476 0.658156 0.028268918
-0.27778512 0.5 -0.41573477 -0.40440026 0.6856826 -0.6052271 0.61666316 0.0504473
-0.35355338 0.5 -0.35355335 -0.51469094 0.68570155 -0.5146909 0.5802944 0.080294386
-0.4157348 0.5 -0.2777851 -0.6052179 0.68569446 -0.40439406 0.5504473 0.11666314
-0.46193975 0.5 -0.19134171 -0.67247605 0.68570155 -0.27854863 0.52826893 0.15815598
-0.49039263 0.5 -0.09754514 -0.7139192 0.6856773 -0.14200738 0.51461154 0.20317832
-0.5 0.5 2.1855694e-08 -0.72788286 0.6857015 2.9972963e-08 0.51 0.25
-0.49039263 0.5 0.097545184 -0.7139157 0.6856811 0.14200677 0.51461154 0.29682168
-0.46193975 0.5 0.19134174 -0.67247605 0.6857016 0.2785487 0.52826893 0.34184402
-0.4157348 0.5 0.27778515 -0.60522735 0.68568254 0.40439987 0.5504473 0.38333684
-0.35355338 0.49999997 0.3535534 -0.5146909 0.6857015 0.51469094 0.5802944 0.41970563
-0.27778512 0.49999997 0.41573483 -0.4043939 0.6856941 0.6052183 0.61666316 0.4495527
-0.19134173 0.49999997 0.46193978 -0.27854863 0.68570155 0.67247605 0.658156 0.47173107
0.09754516 -0.5 0.4903926 0.14200293 -0.68570167 0.71389663 0.29682168 0.48538846
-0.19134173 -0.5 0.46193972 -0.27855444 -0.6856856 0.67248994 0.15815598 0.47173107
-0.27778512 -0.5 0.41573477 -0.40439007 -0.68570155 0.6052124 0.11666314 0.4495527
-0.35355338 -0.5 0.35355335 -0.51470447 -0.68568116 0.5147044 0.080294386 0.41970563
-0.4157348 -0.5 0.2777851 -0.6052125 -0.68570155 0.4043901 0.0504473 0.38333684
-0.46193975 -0.5 0.19134171 -0.6724981 -0.6856763 0.27855778 0.028268918 0.34184402
-0.49039263 -0.5 0.09754514 -0.7138967 -0.6857016 0.1420029 0.014611542 0.29682168
-0.5 -0.5 -2.1855694e-08 -0.7278855 -0.6856988 -2.997285e-08 0.010000005 0.25
-0.49039263 -0.5 -0.097545184 -0.7139026 -0.6856953 -0.14200412 0.014611542 0.20317832
-0.46193975 -0.5 -0.19134174 -0.67249 -0.6856856 -0.27855447 0.028268918 0.15815598
-0.4157348 -0.5 -0.27778515 -0.60521245 -0.6857015 -0.4043901 0.0504473 0.11666314
-0.35355338 -0.49999997 -0.3535534 -0.51470447 -0.68568116 -0.5147045 0.080294386 0.080294386
-0.27778512 -0.49999997 -0.41573483 -0.40439007 -0.68570155 -0.6052125 0.11666314 0.0504473
-0.19134173 -0.49999997 -0.46193978 -0.2785564 -0.68568 -0.6724948 0.15815598 0.028268918
-0.09754516 -0.49999997 -0.49039266 -0.14200409 -0.68569523 -0.71390265 0.20317832 0.014611542
0.19134173 -0.49999997 -0.46193978 0.27855578 -0.68568176 -0.67249334 0.34184402 0.028268918
0 -0.49999997 -0.5 0 -0.68569875 -0.7278855 0.25 0.010000005
0.09754516 -0.49999997 -0.49039266 0.14200293 -0.68570155 -0.71389675 0.29682168 0.014611542
0.27778512 -0.49999997 -0.41573483 0.40439007 -0.68570155 -0.6052125 0.38333684 0.0504473
0.35355338 -0.49999997 -0.3535534 0.51470447 -0.68568116 -0.5147045 0.41970563 0.080294386
0.4157348 -0.5 -0.27778515 0.60521245 -0.6857015 -0.4043901 0.4495527 0.11666314
0.46193975 -0.5 -0.19134174 0.6724948 -0.68568003 -0.27855647 0.47173107 0.15815598
0.49039263 -0.5 -0.097545184 0.7139026 -0.68569523 -0.1420041 0.48538846 0.20317832
0.46193975 -0.5 0.19134171 0.67249334 -0.68568176 0.27855575 0.47173107 0.34184402
0.5 -0.5 -2.1855694e-08 0.72788626 -0.6856979 -2.997281e-08 0.49 0.25
0.49039263 -0.5 0.09754514 0.7138967 -0.6857016 0.1420029 0.48538846 0.29682168
0.4157348 -0.5 0.2777851 0.6052125 -0.68570155 0.4043901 0.4495527 0.38333684
0.35355338 -0.5 0.35355335 0.51470447 -0.68568116 0.5147044 0.41970563 0.41970563
0.27778512 -0.5 0.41573477 0.40439007 -0.68570155 0.6052124 0.38333684 0.4495527
4 0 1 2 3
4 3 2 4 5
4 5 4 6 7
4 7 6 8 9
4 9 8 10 11
4 11 10 12 13
4 13 12 14 15
4 15 14 16 17
4 17 16 18 19
4 19 18 20 21
4 21 20 22 23
4 23 22 24 25
4 25 24 26 27
4 27 26 28 29
4 29 28 30 31
4 31 30 32 33
4 33 32 34 35
4 35 34 36 37
4 37 36 38 39
4 39 38 40 41
4 41 40 42 43
4 43 42 44 45
4 45 44 46 47
4 47 46 48 49
4 49 48 50 51
4 51 50 52 53
4 53 52 54 55
4 55 54 56 57
4 57 56 58 59
4 59 58 60 61
4 61 60 62 63
4 63 62 64 65
3 66 67 68
3 69 70 71
3 71 72 73
3 73 74 75
3 75 76 77
3 77 78 79
3 79 80 81
3 81 82 83
3 83 84 85
3 85 86 87
3 87 88 89
3 89 90 91
3 91 92 93
3 93 94 95
3 95 96 97
3 97 98 99
3 99 100 69
3 69 71 77
3 71 73 77
3 73 75 77
3 77 79 85
3 79 81 85
3 81 83 85
3 85 87 93
3 87 89 93
3 89 91 93
3 93 95 69
3 95 97 69
3 97 99 69
3 68 101 66
4 85 93 69 77
3 67 102 68
3 102 103 104
3 104 105 106
3 106 107 108
3 108 109 106
3 109 110 106
3 110 111 112
3 112 113 114
3 114 115 116
3 115 117 116
3 117 118 116
3 116 119 120
3 120 121 122
3 122 123 124
3 123 125 124
3 125 126 124
3 124 127 128
3 128 129 68
3 102 104 68
3 104 106 68
3 110 112 106
3 112 114 106
3 116 120 114
3 120 122 114
3 124 128 122
3 128 68 122
4 114 122 68 106
