ply
format ascii 1.0
comment Created in Blender version 4.5.3 LTS
element vertex 63
property float x
property float y
property float z
property float nx
property float ny
property float nz
property float s
property float t
element face 80
property list uchar uint vertex_indices
end_header
0 0 -1 0.10238079 -0.31508982 -0.94352347 0.181819 0
0.42532268 -0.3090114 -0.8506542 0.25895575 -0.5076106 -0.82175034 0.2272735 0.0787305
-0.16245556 -0.49999526 -0.8506544 0.088872485 -0.5628749 -0.8217503 0.1363645 0.0787305
0.7236073 -0.5257253 -0.44721952 0.7236077 -0.5257269 -0.44721723 0.272728 0.157461
0.42532268 -0.3090114 -0.8506542 0.5627886 -0.08941659 -0.82175046 0.3181825 0.0787305
0.85064787 0 -0.5257359 0.85064876 1.0611714e-08 -0.5257343 0.363637 0.157461
0 0 -1 -0.2680341 -0.19473651 -0.94352293 0.909091 0
-0.16245556 -0.49999526 -0.8506544 -0.4027467 -0.4031403 -0.82175 0.9545455 0.0787305
-0.5257298 0 -0.8506517 -0.5078665 -0.25845858 -0.8217486 0.8636365 0.0787305
0 0 -1 -0.2680341 0.19473651 -0.94352293 0.727273 0
-0.5257298 0 -0.8506517 -0.5078666 0.2584586 -0.8217487 0.7727275 0.0787305
-0.16245556 0.49999526 -0.8506544 -0.40274674 0.4031403 -0.8217499 0.6818185 0.0787305
0 0 -1 0.10238079 0.31508982 -0.94352347 0.545455 0
-0.16245556 0.49999526 -0.8506544 0.08887249 0.5628749 -0.8217503 0.5909095 0.0787305
0.42532268 0.3090114 -0.8506542 0.25895572 0.50761056 -0.8217503 0.5000005 0.0787305
0.95105785 -0.30901262 0 0.9510572 -0.3090152 -2.0162291e-07 0.3181825 0.236191
-0.27638802 -0.85064924 -0.44721985 -0.11119832 -0.9149366 -0.38797697 0.09091 0.157461
0.26286882 -0.80901164 -0.52573764 0.26286897 -0.80901325 -0.5257354 0.18181899 0.157461
0 -0.99999994 0 0 -1 -1.0611743e-08 0.1363645 0.236191
-0.8944262 0 -0.44721562 -0.8944264 0 -0.44721517 0.818182 0.157461
-0.6881894 -0.49999693 -0.5257362 -0.68818945 -0.49999884 -0.5257343 0.909091 0.157461
-0.95105785 -0.30901262 0 -0.9510572 -0.30901524 2.3080517e-07 0.8636365 0.236191
-0.27638802 0.85064924 -0.44721985 -0.27638924 0.85064965 -0.44721842 0.636364 0.157461
-0.6881894 0.49999693 -0.5257362 -0.68818945 0.49999884 -0.5257343 0.727273 0.157461
-0.5877856 0.8090167 0 -0.587786 0.8090165 -2.4937606e-07 0.6818185 0.236191
0.7236073 0.5257253 -0.44721952 0.7236077 0.5257269 -0.44721723 0.454546 0.157461
0.26286882 0.80901164 -0.52573764 0.26286897 0.80901325 -0.5257354 0.545455 0.157461
0.5877856 0.8090167 0 0.5877861 0.8090164 1.8305263e-07 0.5000005 0.236191
0.5877856 -0.8090167 0 0.5877861 -0.8090165 2.016232e-07 0.2272735 0.236191
-0.5877856 -0.8090167 0 -0.3899437 -0.9107581 0.13588084 0.045455 0.236191
-0.95105785 0.30901262 0 -0.9510572 0.3090152 2.2815223e-07 0.7727275 0.236191
0 0.99999994 0 9.948509e-10 1 -2.6529356e-08 0.5909095 0.236191
0.95105785 0.30901262 0 0.9510572 0.3090152 -2.1223464e-07 0.4090915 0.236191
0.27638802 -0.85064924 0.44721985 0.2763892 -0.8506496 0.44721842 0.181819 0.314921
0.6881894 -0.49999693 0.5257362 0.68818945 -0.49999884 0.52573436 0.272728 0.314921
0.16245556 -0.49999526 0.85065436 0.4027467 -0.40314034 0.8217499 0.2272735 0.3936515
-0.7236073 -0.5257253 0.44721952 -0.51275486 -0.6937761 0.50572455 0 0.314921
-0.26286882 -0.80901164 0.52573764 -0.26286894 -0.80901307 0.52573544 0.0909095 0.314921
-0.42532268 -0.3090114 0.8506542 -0.25895563 -0.5076106 0.82175034 0.045455 0.3936515
-0.7236073 0.5257253 0.44721952 -0.7236077 0.5257269 0.44721723 0.727273 0.314921
-0.85064787 0 0.5257359 -0.85064876 -1.5917571e-08 0.5257343 0.818182 0.314921
-0.42532268 0.3090114 0.8506542 -0.5627886 0.08941659 0.82175046 0.7727275 0.3936515
0.27638802 0.85064924 0.44721985 0.27638918 0.8506496 0.4472184 0.545455 0.314921
-0.26286882 0.80901164 0.52573764 -0.26286894 0.80901325 0.5257354 0.636364 0.314921
0.16245556 0.49999526 0.85065436 -0.08887243 0.56287485 0.82175034 0.5909095 0.3936515
0.8944262 0 0.44721562 0.8944264 0 0.44721517 0.363637 0.314921
0.6881894 0.49999693 0.5257362 0.68818945 0.49999878 0.5257343 0.45454597 0.314921
0.5257298 0 0.8506517 0.50786656 0.25845864 0.8217486 0.4090915 0.3936515
0.16245556 0.49999526 0.85065436 0.4027467 0.4031404 0.82175004 0.5000005 0.3936515
0 0 1 0.26803407 0.1947366 0.9435229 0.454546 0.472382
-0.42532268 0.3090114 0.8506542 -0.2589556 0.5076106 0.8217502 0.6818185 0.3936515
0 0 1 -0.10238079 0.3150899 0.94352347 0.636364 0.472382
-0.42532268 -0.3090114 0.8506542 -0.5627886 -0.08941663 0.82175046 0.8636365 0.3936515
0 0 1 -0.33130455 0 0.94352394 0.818182 0.472382
-0.7236073 -0.5257253 0.44721952 -0.8357941 -0.3884881 0.38797578 0.909091 0.314921
0.16245556 -0.49999526 0.85065436 -0.08887246 -0.56287485 0.82175034 0.1363645 0.3936515
0 0 1 -0.10238079 -0.3150899 0.94352347 0.09091 0.472382
0.5257298 0 0.8506517 0.50786656 -0.25845864 0.8217486 0.3181825 0.3936515
0 0 1 0.26803407 -0.19473661 0.9435229 0.272728 0.472382
-0.5877856 -0.8090167 0 -0.74568444 -0.6522967 -0.1358813 0.9545455 0.236191
-0.27638802 -0.85064924 -0.44721985 -0.5013728 -0.7020451 -0.5057254 1 0.157461
0.42532268 0.3090114 -0.8506542 0.5627886 0.08941663 -0.82175046 0.4090915 0.0787305
0 0 -1 0.33130455 0 -0.94352394 0.363637 0
3 0 1 2
3 3 4 5
3 6 7 8
3 9 10 11
3 12 13 14
3 3 5 15
3 16 17 18
3 19 20 21
3 22 23 24
3 25 26 27
3 3 15 28
3 16 18 29
3 19 21 30
3 22 24 31
3 25 27 32
3 33 34 35
3 36 37 38
3 39 40 41
3 42 43 44
3 45 46 47
3 47 48 49
3 47 46 48
3 46 42 48
3 44 50 51
3 44 43 50
3 43 39 50
3 41 52 53
3 41 40 52
3 40 54 52
3 38 55 56
3 38 37 55
3 37 33 55
3 35 57 58
3 35 34 57
3 34 45 57
3 32 46 45
3 32 27 46
3 27 42 46
3 31 43 42
3 31 24 43
3 24 39 43
3 30 40 39
3 30 21 40
3 21 54 40
3 29 37 36
3 29 18 37
3 18 33 37
3 28 34 33
3 28 15 34
3 15 45 34
3 27 31 42
3 27 26 31
3 26 22 31
3 24 30 39
3 24 23 30
3 23 19 30
3 21 59 54
3 21 20 59
3 20 60 59
3 18 28 33
3 18 17 28
3 17 3 28
3 15 32 45
3 15 5 32
3 5 25 32
3 14 26 25
3 14 13 26
3 13 22 26
3 11 23 22
3 11 10 23
3 10 19 23
3 8 20 19
3 8 7 20
3 7 60 20
3 5 61 25
3 5 4 61
3 4 62 61
3 2 17 16
3 2 1 17
3 1 3 17
